{"title":"Tool - Undertow - Custom Remaster by MC Lurken 24-bit 96kHz flac","uid":8021545,"size":1541159758,"categoryP":"audio","categoryS":"flac","magnet":"?xt=urn:btih:c21924e3ea1a4cb0730556511238489108cdd554&amp;dn=Tool+-+Undertow+-+Custom+Remaster+by+MC+Lurken+24-bit+96kHz+flac&amp;tr=udp%3A%2F%2Ftracker.openbittorrent.com%3A80&amp;tr=udp%3A%2F%2Fopen.demonii.com%3A1337&amp;tr=udp%3A%2F%2Ftracker.coppersurfer.tk%3A6969&amp;tr=udp%3A%2F%2Fexodus.desync.com%3A6969","seeders":1,"leechers":1,"uploader":"beavis39","files":-1,"time":1358215838,"description":"Tool - Undertow - Custom Remaster by MC Lurken (a.k.a. Beavis39)\n\n\n1 - Intolerance\n2 - Prison Sex\n3 - Sober\n4 - Bottom\n5 - Crawl Away\n6 - Swamp Song\n7 - Undertow\n8 - 4 Degrees\n9 - Flood\n69 - Disgustipated\n\n\nSetup:\n-HP G72-250US\n-Intel Core i3 M350 2.27GHz\n-8Gb PC3-10700 RAM\n-Win7 64-bit SP1\n-SB X-Fi Surround 5.1\n\n\nProcess:\n-Original 16-bit/44.1kHz files joined in Wavelab 6\n-Remove DC offset and save as 64-bit float/44.1kHz\n-Resample to 384kHz in Wavelab w/crystal resampler ultra(slow) relax background priority\n-Create new 64-bit/384kHz master recording in Wavelab\n\n\nAs reported in Wavelab:\n-Original 16-bit/44.1kHz: Apparent Bit Resolution = 16, Peak = 0db\n-With DC Offset Removed: Apparent Bit Resolution = 21, Peak = 0db\n-64-bit/384kHz Recording: Apparent Bit Resolution = 45, Peak = 0.836db\n\n\n-Resample new 64-bit/384kHz master recording to 64-bit/96kHz in Wavelab w/crystal resampler ultra(slow) relax background priority\n-Apply MBIT+ 24-bit Dither in Wavelab w/Izotope Ozone 5 VST Plugin\n-Flac encode level 0 with Trader's Little Helper\n-Tag and pic with xrecode II\n\n\nfoobar2000 1.1.14a / Dynamic Range Meter 1.1.1\nlog date: 2013-01-13 20:53:42\n\n--------------------------------------------------------------------------------\nAnalyzed: ? / ?\n--------------------------------------------------------------------------------\n\nDR         Peak         RMS     Duration Track\n--------------------------------------------------------------------------------\nDR11       0.00 dB   -12.47 dB      4:55 ?-01 - Intolerance\nDR11       0.00 dB   -12.93 dB      4:56 ?-02 - Prison Sex\nDR12       0.00 dB   -14.57 dB      5:07 ?-03 - Sober\nDR12       0.00 dB   -13.49 dB      7:14 ?-04 - Bottom\nDR12       0.00 dB   -13.35 dB      5:30 ?-05 - Crawl Away\nDR11       0.00 dB   -13.47 dB      5:32 ?-06 - Swamp Song\nDR11       0.00 dB   -13.22 dB      5:22 ?-07 - Undertow\nDR12       0.00 dB   -14.03 dB      6:03 ?-08 - 4 Degrees\nDR13       0.00 dB   -15.25 dB      7:46 ?-09 - Flood\nDR15       0.00 dB   -23.35 dB     15:47 ?-69 - Disgustipated\n--------------------------------------------------------------------------------\n\nNumber of tracks:  10\nOfficial DR value: DR12\n\nSamplerate:        96000 Hz\nChannels:          2\nBits per sample:   24\nBitrate:           4608 kbps\nCodec:             PCM\n\n\n\nenjoy :)\n","torrent":{"xt":"urn:btih:c21924e3ea1a4cb0730556511238489108cdd554","amp;dn":"Tool+-+Undertow+-+Custom+Remaster+by+MC+Lurken+24-bit+96kHz+flac","amp;tr":["udp%3A%2F%2Ftracker.openbittorrent.com%3A80","udp%3A%2F%2Fopen.demonii.com%3A1337","udp%3A%2F%2Ftracker.coppersurfer.tk%3A6969","udp%3A%2F%2Fexodus.desync.com%3A6969"],"infoHash":"c21924e3ea1a4cb0730556511238489108cdd554","infoHashBuffer":{"type":"Buffer","data":[194,25,36,227,234,26,76,176,115,5,86,81,18,56,72,145,8,205,213,84]},"announce":[],"urlList":[]}}